<svg width="16" height="16" viewBox="0 0 16 16" fill="none" xmlns="http://www.w3.org/2000/svg">
<g clip-path="url(#clip0_2_2914)">
<rect width="16" height="16" rx="8" fill="#E8FF85"/>
<path d="M3.12961 6.27903C1.65467 6.39779 1.02256 6.41311 0.838673 6.14877C0.658616 5.88444 2.83079 5.84613 3.76938 5.8806C4.70797 5.91508 3.12961 6.27903 3.12961 6.27903Z" fill="#CC332F"/>
<path d="M2.39113 11.3933C2.80488 11.8109 3.56724 11.899 4.11124 12.0638C4.82764 12.2745 5.55936 12.4507 6.29491 12.5695C7.67407 12.7917 9.0877 12.784 10.4745 12.6154C11.8 12.4545 13.1102 12.1442 14.3783 11.7075C14.3208 10.949 14.2404 10.0985 14.1331 9.15988C13.6236 4.72359 12.7846 4.44393 6.71249 4.60866C2.64398 4.71976 2.08082 7.8765 2.14978 11.2478C2.23406 11.2708 2.31451 11.3167 2.39113 11.3933Z" fill="#FE7EB2"/>
<path d="M2.39113 11.3934C2.58651 11.5887 2.85468 11.7152 3.14583 11.8071C3.12668 11.6922 3.11902 11.5772 3.13051 11.47C3.29141 10.1138 2.90448 8.59674 5.72409 8.13319C7.33694 7.86885 11.7502 8.55843 13.2137 5.79245C12.3249 4.57803 10.578 4.50141 6.71249 4.60868C2.64398 4.71978 2.08082 7.87651 2.14978 11.2478C2.23406 11.2708 2.31451 11.3167 2.39113 11.3934Z" fill="#DD689D"/>
<path d="M14.5263 16.1629L2.37822 16.2587C2.37822 14.7876 2.17135 12.8108 2.14453 11.106C2.59659 11.0677 4.44696 12.4928 8.17451 12.4928C11.5994 12.4928 13.967 11.1788 14.3347 11.1213C14.6067 14.3508 14.5148 16.4349 14.5263 16.1629Z" fill="#2C8469"/>
<path d="M13.4151 6.12199C12.5953 4.59343 10.8982 4.49765 6.71088 4.61258C4.91798 4.66238 3.80699 5.29833 3.12891 6.28289C6.54615 5.97641 9.99787 5.87681 13.4151 6.12199Z" fill="#CC332F"/>
<path d="M6.96484 5.5779C7.08744 4.9726 9.11403 4.61249 9.37837 5.48595C9.3822 5.48595 7.99155 5.48595 6.96484 5.5779Z" fill="#DD689D"/>
<path d="M4.7975 8.8151C4.82432 8.89938 4.88561 8.96834 4.96606 9.01048C5.09631 9.08327 5.27254 9.06411 5.38747 8.96451C5.5024 8.86873 5.54837 8.69634 5.49857 8.55459C5.44877 8.41285 5.30702 8.30941 5.15761 8.30558C4.88561 8.29792 4.71705 8.56992 4.7975 8.8151Z" fill="#03036D"/>
<path d="M11.0514 8.8151C11.0782 8.89938 11.1395 8.96834 11.22 9.01048C11.3502 9.08327 11.5264 9.06411 11.6414 8.96451C11.7563 8.86873 11.8023 8.69634 11.7525 8.55459C11.7027 8.41285 11.5609 8.30941 11.4115 8.30558C11.1395 8.29792 10.971 8.56992 11.0514 8.8151Z" fill="#03036D"/>
<path d="M4.13672 7.25976C4.221 8.19836 4.34742 7.92252 5.28218 7.96466C6.59621 8.02979 6.30123 7.16016 6.30123 7.16016L4.13672 7.25976Z" fill="#03036D"/>
<path d="M10.1953 7.15234C10.3447 7.91471 10.6627 8.01048 11.5323 7.96451C12.402 7.91471 12.4441 7.34389 12.4441 7.15234H10.1953Z" fill="#03036D"/>
<path d="M14.3347 11.1252C13.9555 11.8186 9.76437 14.3318 9.76437 14.3318C9.70308 14.1287 8.96753 13.0407 8.87558 13.1058C8.78364 13.1671 8.8411 15.3316 8.8411 15.3316C8.8411 15.3316 7.92933 15.3929 7.83738 15.3316C7.74544 15.2703 7.70713 13.0599 7.70713 13.0599C7.49643 13.2552 6.68042 14.1977 6.68042 14.1977C6.43524 13.6728 2.14453 11.1099 2.14453 11.1099C2.59659 11.0716 4.44696 12.4967 8.17451 12.4967C11.5994 12.4967 13.967 11.1788 14.3347 11.1252Z" fill="#3CA184"/>
<path d="M8.54202 14.6126L8.0625 14.6677L8.07695 14.7933L8.55647 14.7381L8.54202 14.6126Z" fill="white"/>
<path d="M8.06984 13.813L8.0625 13.9392L8.44495 13.9615L8.45229 13.8353L8.06984 13.813Z" fill="white"/>
<path d="M6.48918 10.6004C6.55814 11.0486 6.92592 11.4241 7.36648 11.539C7.80322 11.6577 8.28975 11.5313 8.64603 11.2517C9.00232 10.972 9.23218 10.5468 9.31646 10.1024C9.37775 9.78822 9.36626 9.4396 9.17854 9.17909C8.94102 8.8458 8.47747 8.74236 8.07522 8.82281C7.31668 8.97222 6.3551 9.71926 6.48918 10.6004Z" fill="#CC332F"/>
<path d="M9.11915 9.10627C8.87013 8.83427 8.44872 8.74999 8.07712 8.82278C7.80129 8.87641 7.49864 9.01433 7.23047 9.20588C7.85875 9.17906 8.49086 9.14458 9.11915 9.10627Z" fill="white"/>
<path d="M6.49609 10.6309C6.58038 11.0638 6.93666 11.4239 7.3619 11.5388C7.79863 11.6576 8.28517 11.5312 8.64145 11.2515C8.90579 11.0446 9.09734 10.7573 9.2161 10.4432C8.30432 10.2708 7.32742 10.2516 6.49609 10.6309Z" fill="#FE673C"/>
<path d="M5.88265 14.4391V16.2588H3.64535C3.58789 15.1402 3.48828 14.397 3.48828 14.397C3.48828 14.397 5.59916 14.5655 5.88265 14.4391Z" fill="#FFD939"/>
<path d="M6.55936 7.32822L6.33984 7.77954L6.45354 7.83484L6.67305 7.38352L6.55936 7.32822Z" fill="#03036D"/>
<path d="M7.56515 6.4668C7.90994 6.79243 8.41563 6.93801 8.87918 6.85373C8.67614 6.80775 8.54205 6.55874 8.61867 6.36336C9.33124 6.75795 10.2239 6.81158 10.9824 6.50894C10.8062 6.54725 10.6261 6.43615 10.515 6.2944C10.4039 6.15266 10.3388 5.98026 10.243 5.82319C10.0017 5.42477 9.57642 5.16809 9.13202 5.03401C8.70678 4.90375 7.38509 4.58578 7.07478 5.03784C6.81428 5.40944 7.29698 6.21395 7.56515 6.4668Z" fill="white"/>
</g>
<defs>
<clipPath id="clip0_2_2914">
<rect width="16" height="16" rx="8" fill="white"/>
</clipPath>
</defs>
</svg>
